<?xml version="1.0" encoding="UTF-8" standalone="no"?>
<svg xmlns:ffdec="https://www.free-decompiler.com/flash" xmlns:xlink="http://www.w3.org/1999/xlink" ffdec:objectType="shape" height="46.7px" width="56.1px" xmlns="http://www.w3.org/2000/svg">
  <g transform="matrix(1.0, 0.0, 0.0, 1.0, 0.0, 46.6)">
    <path d="M4.65 -6.9 Q4.65 -5.7 6.35 -4.9 L11.45 -3.4 Q16.95 -2.0 28.0 -2.0 39.15 -2.0 44.6 -3.4 L49.8 -4.9 Q51.5 -5.7 51.5 -6.9 51.5 -9.35 44.6 -11.1 37.75 -12.9 28.0 -12.9 18.4 -12.9 11.45 -11.1 4.65 -9.35 4.65 -6.9 M1.35 -6.8 Q1.35 -9.65 9.3 -11.7 17.25 -13.75 28.5 -13.75 39.7 -13.75 47.65 -11.7 55.65 -9.65 55.65 -6.8 55.65 -3.95 47.65 -1.85 39.7 0.1 28.5 0.1 17.25 0.1 9.3 -1.85 1.35 -3.95 1.35 -6.8" fill="#000000" fill-rule="evenodd" stroke="none"/>
    <path d="M3.1 -9.85 L4.7 -9.35 Q4.35 -8.95 4.45 -8.6 4.6 -7.95 6.4 -7.9 L11.7 -8.4 Q17.35 -8.95 28.45 -11.75 39.6 -14.55 44.85 -16.7 L49.85 -18.85 Q51.5 -19.75 51.35 -20.4 51.25 -20.85 50.45 -21.05 L51.5 -22.1 51.75 -22.45 Q55.3 -22.45 55.5 -21.45 55.85 -19.8 48.05 -16.6 40.4 -13.5 29.2 -10.65 17.9 -7.85 9.65 -6.95 1.55 -6.15 1.15 -7.8 1.0 -8.6 3.1 -9.85" fill="#000000" fill-rule="evenodd" stroke="none"/>
    <path d="M2.45 -23.45 L2.25 -23.1 Q-0.1 -23.95 0.0 -24.75 0.1 -26.2 8.35 -26.8 16.5 -27.4 27.95 -26.6 39.4 -25.9 47.5 -24.3 55.45 -22.65 55.3 -21.2 55.25 -20.4 52.8 -19.85 L50.85 -20.65 Q52.0 -21.0 51.95 -21.45 52.1 -22.75 45.25 -24.15 38.25 -25.5 28.4 -26.1 18.55 -26.7 11.4 -26.25 4.55 -25.8 4.25 -24.55 3.0 -24.25 2.45 -23.45" fill="#000000" fill-rule="evenodd" stroke="none"/>
    <path d="M2.45 -25.45 Q3.1 -25.05 4.0 -24.85 3.65 -24.5 3.75 -24.15 3.85 -23.6 5.65 -23.45 L11.05 -23.6 Q16.8 -23.75 28.25 -25.7 39.65 -27.7 45.1 -29.35 L50.25 -31.05 Q51.95 -31.85 51.85 -32.45 51.8 -32.9 50.95 -33.15 L52.05 -34.0 52.35 -34.35 Q55.95 -34.15 56.1 -33.2 56.4 -31.6 48.35 -29.1 40.4 -26.65 28.95 -24.6 17.35 -22.65 8.95 -22.35 0.65 -22.05 0.35 -23.6 0.25 -24.35 2.45 -25.45" fill="#000000" fill-rule="evenodd" stroke="none"/>
    <path d="M2.5 -37.15 L2.25 -36.8 Q-0.1 -37.7 0.0 -38.55 0.2 -39.9 8.45 -40.2 L28.0 -39.45 Q39.5 -38.4 47.5 -36.6 55.4 -34.8 55.2 -33.4 55.1 -32.65 52.65 -32.15 L50.7 -33.0 Q51.85 -33.3 51.9 -33.7 52.05 -35.0 45.15 -36.55 38.25 -38.05 28.45 -38.95 L11.45 -39.65 Q4.65 -39.4 4.25 -38.15 3.05 -37.9 2.5 -37.15" fill="#000000" fill-rule="evenodd" stroke="none"/>
    <path d="M2.25 -38.9 L3.85 -38.4 3.55 -37.9 Q3.7 -37.4 5.5 -37.2 L10.85 -37.0 28.0 -37.7 44.9 -39.6 50.1 -40.65 Q51.8 -41.15 51.75 -41.65 51.65 -42.0 50.85 -42.25 51.4 -42.4 51.95 -42.85 L52.25 -43.1 Q55.8 -42.75 56.0 -41.95 56.25 -40.7 48.15 -39.25 40.2 -37.7 28.7 -36.85 L8.7 -36.15 Q0.45 -36.4 0.15 -37.6 0.05 -38.25 2.25 -38.9" fill="#000000" fill-rule="evenodd" stroke="none"/>
    <path d="M11.35 -45.6 L7.15 -45.0 2.2 -45.0 8.3 -46.0 Q16.4 -46.8 27.8 -46.5 L47.35 -45.1 Q55.35 -43.8 55.25 -42.5 55.15 -41.8 52.75 -41.1 L50.8 -41.85 Q51.9 -42.1 51.9 -42.55 52.0 -43.8 45.1 -44.85 L28.3 -46.1 11.35 -45.6" fill="#000000" fill-rule="evenodd" stroke="none"/>
  </g>
</svg>
