<?xml version="1.0" encoding="UTF-8" standalone="no"?>
<svg xmlns:ffdec="https://www.free-decompiler.com/flash" xmlns:xlink="http://www.w3.org/1999/xlink" ffdec:objectType="shape" height="56.0px" width="60.0px" xmlns="http://www.w3.org/2000/svg">
  <g transform="matrix(1.0, 0.0, 0.0, 1.0, 7.5, 7.5)">
    <path d="M45.0 10.0 L45.0 31.0 Q45.0 41.0 35.0 41.0 L10.0 41.0 Q0.0 41.0 0.0 31.0 L0.0 10.0 Q0.0 0.0 10.0 0.0 L35.0 0.0 Q45.0 0.0 45.0 10.0" fill="#fd8813" fill-opacity="0.6" fill-rule="evenodd" stroke="none"/>
    <path d="M45.0 10.0 Q45.0 0.0 35.0 0.0 L10.0 0.0 Q0.0 0.0 0.0 10.0 L0.0 31.0 Q0.0 41.0 10.0 41.0 L35.0 41.0 Q45.0 41.0 45.0 31.0 L45.0 10.0 Z" fill="none" stroke="#fd8813" stroke-linecap="round" stroke-linejoin="round" stroke-opacity="0.6" stroke-width="15.0"/>
  </g>
</svg>
