<?xml version="1.0" encoding="UTF-8" standalone="no"?>
<svg xmlns:ffdec="https://www.free-decompiler.com/flash" xmlns:xlink="http://www.w3.org/1999/xlink" ffdec:objectType="shape" height="31.7px" width="49.65px" xmlns="http://www.w3.org/2000/svg">
  <g transform="matrix(1.0, 0.0, 0.0, 1.0, 27.55, -3.85)">
    <path d="M-6.0 14.5 L-3.3 13.75 5.4 10.7 5.9 9.7 7.05 8.8 8.55 7.75 8.6 8.05 Q8.75 8.9 12.6 12.25 16.35 15.5 20.0 22.05 23.6 28.55 19.1 28.2 L13.8 27.95 Q13.4 28.0 12.9 28.7 -2.2 23.55 -4.65 19.35 L-7.25 15.0 -7.25 14.95 -6.95 14.75 -6.6 14.7 -6.45 14.7 -6.0 14.55 -6.0 14.5 M-8.1 16.5 Q-6.85 16.7 -7.95 16.6 L-8.1 16.5" fill="#ff0000" fill-rule="evenodd" stroke="none"/>
    <path d="M5.9 9.7 L5.4 10.7 -3.3 13.75 -6.0 14.5 -5.65 14.3 -5.4 14.1 -4.75 13.55 Q-2.2 12.4 0.8 11.75 3.8 11.1 5.9 9.7 M-7.25 15.0 L-4.65 19.35 Q-2.2 23.55 12.9 28.7 L12.6 29.3 12.9 28.7 13.2 28.8 12.6 29.3 Q8.1 32.2 1.3 29.4 -1.7 24.15 -8.4 16.4 L-8.5 15.6 -9.1 15.8 -8.45 15.4 -7.85 15.35 -7.7 15.35 -7.25 15.0 M-8.1 16.5 L-7.95 16.6 Q-6.85 16.7 -8.1 16.5 M-7.85 15.35 L-8.5 15.6 -7.85 15.35" fill="#ca0202" fill-rule="evenodd" stroke="none"/>
    <path d="M12.9 28.7 Q13.4 28.0 13.8 27.95 L19.1 28.2 Q23.6 28.55 20.0 22.05 16.35 15.5 12.6 12.25 8.75 8.9 8.6 8.05 L8.55 7.75 M12.9 28.7 L12.6 29.3 Q8.1 32.2 1.3 29.4 -1.7 24.15 -8.4 16.4 M-8.5 15.6 L-9.1 15.8 M-7.85 15.35 L-7.7 15.35 M-8.5 15.6 L-7.85 15.35" fill="none" stroke="#000000" stroke-linecap="round" stroke-linejoin="round" stroke-width="1.0"/>
    <path d="M8.2 8.1 L8.2 8.15 Q7.75 8.85 7.7 9.95 L4.65 15.75 1.3 21.9 1.5 21.25 1.6 20.8 1.6 20.6 1.55 20.45 1.3 21.35 1.3 21.3 1.45 21.25 1.25 21.4 1.25 21.45 1.2 21.55 1.15 21.55 1.1 21.55 1.0 21.7 0.85 21.85 0.6 22.15 0.65 22.15 0.85 22.15 0.8 22.2 0.65 22.15 Q-0.55 23.65 -4.95 23.4 -9.35 23.15 -20.5 19.75 -1.7 27.6 -12.5 34.9 L-13.15 34.85 Q-13.9 32.8 -18.85 34.35 L-26.8 33.2 -27.0 33.1 Q-27.35 32.55 -24.2 28.4 -20.2 22.75 -20.2 22.05 L-20.7 20.05 Q-21.1 18.5 -20.4 18.75 -21.4 15.65 -21.0 14.95 -19.95 11.3 -16.9 7.9 -14.3 4.9 -12.8 4.45 -12.1 4.1 -8.15 5.25 L-2.05 6.5 Q1.4 6.8 7.55 6.6 7.05 6.9 8.2 8.1" fill="#ff0000" fill-rule="evenodd" stroke="none"/>
    <path d="M1.5 21.25 L1.45 21.25 1.3 21.3 1.3 21.35 1.55 20.45 1.6 20.6 1.6 20.8 1.6 20.95 Q1.4 21.0 1.5 21.25 M1.25 21.4 L1.15 21.65 1.25 21.45 1.25 21.4 M1.1 21.55 L1.1 21.6 1.0 21.7 1.1 21.55 M0.8 22.2 L0.7 22.6 0.7 22.65 0.2 22.95 0.0 23.5 -0.6 24.35 -0.65 24.35 -1.85 26.1 -3.45 29.8 Q-5.85 34.75 -8.85 35.05 L-12.5 34.9 Q-1.7 27.6 -20.5 19.75 -9.35 23.15 -4.95 23.4 -0.55 23.65 0.65 22.15 L0.8 22.2" fill="#ca0202" fill-rule="evenodd" stroke="none"/>
    <path d="M0.0 23.5 L-0.6 24.35 -0.65 24.35 -1.85 26.1 -3.45 29.8 Q-5.85 34.75 -8.85 35.05 L-12.5 34.9 -13.15 34.85 Q-13.9 32.8 -18.85 34.35 L-26.8 33.2 -27.0 33.1 Q-27.35 32.55 -24.2 28.4 -20.2 22.75 -20.2 22.05 L-20.7 20.05 Q-21.1 18.5 -20.4 18.75 -21.4 15.65 -21.0 14.95 -19.95 11.3 -16.9 7.9 -14.3 4.9 -12.8 4.45 -12.1 4.1 -8.15 5.25 L-2.05 6.5 Q1.4 6.8 7.55 6.6 7.05 6.9 8.2 8.1" fill="none" stroke="#000000" stroke-linecap="round" stroke-linejoin="round" stroke-width="1.0"/>
  </g>
</svg>
