<?xml version="1.0" encoding="UTF-8" standalone="no"?>
<svg xmlns:ffdec="https://www.free-decompiler.com/flash" xmlns:xlink="http://www.w3.org/1999/xlink" ffdec:objectType="shape" height="121.05px" width="136.3px" xmlns="http://www.w3.org/2000/svg">
  <g transform="matrix(1.0, 0.0, 0.0, 1.0, 52.95, 30.2)">
    <path d="M-21.1 -26.9 L-21.1 -24.0 Q-32.9 -26.5 -37.8 -20.85 -44.8 -12.85 -33.85 6.85 -22.85 26.55 -0.3 46.45 22.25 66.25 43.15 74.65 62.4 82.35 69.85 76.2 L83.35 76.2 Q83.55 82.4 80.1 86.3 71.75 95.6 46.85 85.85 21.9 76.05 -5.0 52.9 -31.85 29.7 -45.0 6.7 -58.05 -16.3 -49.65 -25.6 -42.15 -34.1 -21.1 -26.9" fill="url(#gradient0)" fill-rule="evenodd" stroke="none"/>
  </g>
  <defs>
    <linearGradient gradientTransform="matrix(0.0269, -0.0264, 0.0744, 0.0731, 15.25, 30.35)" gradientUnits="userSpaceOnUse" id="gradient0" spreadMethod="pad" x1="-819.2" x2="819.2">
      <stop offset="0.0" stop-color="#febcbc"/>
      <stop offset="1.0" stop-color="#d20202"/>
    </linearGradient>
  </defs>
</svg>
